<svg id="Layer_1" data-name="Layer 1" xmlns="http://www.w3.org/2000/svg" xmlns:xlink="http://www.w3.org/1999/xlink" viewBox="0 0 796.52 173.8"><defs><style>.cls-1,.cls-2{isolation:isolate;}.cls-2{font-size:120px;fill:#f9f9f9;font-family:Montserrat-Bold, Montserrat;font-weight:700;}.cls-3{fill:none;stroke:#000;stroke-miterlimit:10;stroke-width:5px;}.cls-4{fill:url(#linear-gradient);}.cls-5{fill:url(#linear-gradient-2);}.cls-6{fill:url(#linear-gradient-3);}.cls-7{fill:url(#linear-gradient-4);}</style><linearGradient id="linear-gradient" x1="-281.68" y1="474.12" x2="-281.69" y2="474.04" gradientTransform="matrix(148.33, 0, 0, -367.34, 41789.88, 174226.48)" gradientUnits="userSpaceOnUse"><stop offset="0.02" stop-color="#ff7f00"/><stop offset="0.55" stop-color="#bf0000"/><stop offset="1" stop-color="#bf0000"/></linearGradient><linearGradient id="linear-gradient-2" x1="-281.71" y1="474.12" x2="-281.71" y2="474.04" xlink:href="#linear-gradient"/><linearGradient id="linear-gradient-3" x1="-281.93" y1="473.98" x2="-281.94" y2="473.89" gradientTransform="matrix(91.69, -5.23, -11.71, -205.42, 31416.31, 95959.35)" xlink:href="#linear-gradient"/><linearGradient id="linear-gradient-4" x1="-282.32" y1="474.13" x2="-282.32" y2="474.04" gradientTransform="matrix(91.01, 0, 0, -200.02, 25709.71, 94909.35)" xlink:href="#linear-gradient"/></defs><title>logo1</title><g class="cls-1"><text class="cls-2" transform="translate(19.15 124.59)">m</text><text class="cls-2" transform="translate(145.75 124.59)"><tspan xml:space="preserve">enuB   MB</tspan></text></g><path d="M595.52,23.72c1.93.3,1,2.65,3.07,4.05-2.71,6.38-8.37,6.68-13.23,6.26a13.92,13.92,0,0,1-8.24-3.57,12.73,12.73,0,0,1-4-6.85,13.57,13.57,0,0,1,.72-7.94A6.56,6.56,0,0,0,572,8.33a6.36,6.36,0,0,0-7.77-.76c-2.51,1.5-3.31,4.6-4.51,7.58,1.79.92,4,1.8,5.93,2.91-2.58,6.59-5.39,13.23-8,19.82,11.8,8.4,17.64,18,20.31,28.6a48.67,48.67,0,0,1-31.26,58,47,47,0,0,1-33.38-.53,50.87,50.87,0,0,1-17.22-11.25,48.42,48.42,0,0,1-9.82-14.37,47.81,47.81,0,0,1-2.48-32.68,50.16,50.16,0,0,1,9.36-18.11,48.65,48.65,0,0,1,45.92-17c2.81-6.65,5.22-13.22,8.11-19.89,2.1.63,4.21,1.29,6.36,2.1,1-2.39,1.63-4.67,3-6.79a13.17,13.17,0,0,1,5-4.52A13.38,13.38,0,0,1,574,1.65a13.18,13.18,0,0,1,6.28,7.65,14.33,14.33,0,0,1-.44,9.19,6.54,6.54,0,0,0,3.12,8.12c3.32,1.73,10.84,1.57,12.54-2.87Z" transform="translate(0 -0.02)"/><path d="M598.4,25" transform="translate(0 -0.02)"/><path class="cls-3" d="M590.71,29.53" transform="translate(0 -0.02)"/><path class="cls-3" d="M590.71,29.53s31-22.11,46.44-2,77.85,1,77.85,1,49-18.93,61.86,13,13.92,48.73,13.92,48.73,15,45.71-19.59,48.72-75-3.69-75-3.69-66.78-.52-82.25,6.7-71.14,3.1-71.14,3.1-50.45-3.61-60.8-15-50.56,15.23-52.11,16.12-70.77,6.63-99.69-8.46-65.71,11.59-65.71,11.59S242,167.75,279.31,171.3c30-5.8,6.77-20.94,6.77-20.94s-47.94-27.44-88.18-5.27-119.5,1.56-119.5,1.56-31.76-7-50.61-3.22S9.08,89.75,9.08,89.75" transform="translate(0 -0.02)"/><path class="cls-4" d="M8.45,94.24c.69.07-5.33-2.52-4-6.49-.25-5.08,6-19.18,6.74-22.21S7.92,50.8,7.92,50.8" transform="translate(0 -0.02)"/><path class="cls-5" d="M7.92,50.8C10.75,55.66,6.52,63,1.33,75.45S7.75,94.12,8.67,94.24" transform="translate(0 -0.02)"/><path class="cls-6" d="M14.5,64.89a8.23,8.23,0,0,1,.1,4A19.55,19.55,0,0,1,12.89,74c-1,2.1-1.92,3.47-3.79,8s1.86,8.91,1.16,7.39.28-4.48,1.26-6.47S13.15,80,14.1,78A18.86,18.86,0,0,0,16,71.43a12.06,12.06,0,0,0-.48-4c-.48-1.79-1.55-4.14-1-2.54Z" transform="translate(0 -0.02)"/><path class="cls-7" d="M12.66,93.16c-.45,1.11-.58-2.34.22-5.32s3.32-5.61,4.4-8.43,1.77-7.09.9-9.36.15.26.89,1.89a11,11,0,0,1,1.12,5.47c0,2.66-.51,5.77-3.79,9.84s-3.29,4.8-3.74,5.91" transform="translate(0 -0.02)"/></svg>